<svg xmlns="http://www.w3.org/2000/svg" width="24" height="24" fill="none"><path fill="#FCFCFC" fill-rule="evenodd" d="M24 12c0 6.6274-5.3726 12-12 12-6.62742 0-12-5.3726-12-12C0 5.37258 5.37258 0 12 0c6.6274 0 12 5.37258 12 12Zm-11.4116 2.9749h-.7173s-1.5826.0835-2.97631-1.1882c-1.51993-1.3872-2.8623-4.13968-2.8623-4.13968s-.07738-.18048.00668-.26772c.09449-.09809.35189-.10437.35189-.10437l1.71461-.00985s.1616.0237.27727.09809c.0953.0614.14873.17619.14873.17619s.27711.61424.64414 1.16994c.71631 1.0849 1.04999 1.3222 1.29319 1.2059.3543-.1694.2481-1.5336.2481-1.5336s.0065-.49514-.1784-.71559c-.1432-.17091-.4133-.22074-.5325-.23473-.09649-.01128.0619-.20761.2671-.2957.3086-.1325.8535-.14007 1.4973-.13422.5016.00443.6459.03184.8421.07339.455.0963.4409.40488.4102 1.07065-.0091.199-.0197.4298-.0197.6964 0 .06-.002.1239-.0041.1897-.0106.341-.0228.7314.2333.8765.1313.0742.4525.0111 1.256-1.1847.3809-.5667.6665-1.23306.6665-1.23306s.0624-.11879.1593-.16976c.0992-.05197.233-.03598.233-.03598l1.8043-.00985s.5422-.05669.63.15777c.092.22516-.2027.75088-.9398 1.61198-.6954.8123-1.0357 1.1143-1.0089 1.3792.0199.1962.2411.3721.6687.72.8882.7225 1.1249 1.1019 1.1812 1.1921a.44744.44744 0 0 0 .0103.0162c.3975.5777-.4408.623-.4408.623l-1.6025.0195s-.3444.0599-.7976-.213c-.237-.1426-.4688-.3754-.6895-.5972-.3375-.3391-.6495-.6526-.9157-.5786-.4467.1242-.4326.9678-.4326.9678s.0032.1802-.0986.2761c-.1106.1045-.3273.1254-.3273.1254Z" clip-rule="evenodd"/></svg>