<svg xmlns="http://www.w3.org/2000/svg" width="16" height="17" fill="none"><path fill="currentColor" fill-rule="evenodd" d="M2.66329 8.18794c0-2.57733 2.08934-4.66666 4.66667-4.66666s4.66664 2.08933 4.66664 4.66666c0 1.25728-.4972 2.39846-1.3057 3.23756a.66988.66988 0 0 0-.0657.0577.66988.66988 0 0 0-.0577.0657c-.83915.8085-1.98028 1.3057-3.23754 1.3057-2.57733 0-4.66667-2.0893-4.66667-4.66666Zm8.41181 4.68796c-1.0265.8211-2.32848 1.312-3.74514 1.312-3.31371 0-6-2.6862-6-5.99996 0-3.31371 2.68629-6 6-6 3.31374 0 6.00004 2.68629 6.00004 6 0 1.41669-.491 2.71866-1.3121 3.74516l2.4501 2.4501c.2604.2604.2604.6825 0 .9428-.2603.2604-.6825.2604-.9428 0l-2.4501-2.4501Z" clip-rule="evenodd"/></svg>
